<?xml version="1.0" encoding="utf-8"?>
<!-- Generator: Adobe Illustrator 16.0.0, SVG Export Plug-In . SVG Version: 6.00 Build 0)  -->
<!DOCTYPE svg PUBLIC "-//W3C//DTD SVG 1.1//EN" "http://www.w3.org/Graphics/SVG/1.1/DTD/svg11.dtd">
<svg version="1.1" id="Layer_1" xmlns="http://www.w3.org/2000/svg" xmlns:xlink="http://www.w3.org/1999/xlink" x="0px" y="0px"
	 width="291.256px" height="47.203px" viewBox="0 0 291.256 47.203" enable-background="new 0 0 291.256 47.203"
	 xml:space="preserve">
<g>
	<rect x="189.455" y="41.357" fill-rule="evenodd" clip-rule="evenodd" fill="#FBC82B" width="101.2" height="5.695"/>
	<path fill="#211D1C" d="M52.142,22.028c0.075,0.075,0.527,0.374,1.278,0.823c0,0,1.43,0.674,4.139,1.949
		c0.15,0,0.677,0.224,1.655,0.675c1.654,0.973,3.01,2.321,3.987,4.046c0.902,1.797,1.43,3.67,1.43,5.619
		c0,3.971-2.709,7.042-8.126,9.216c-4.213,1.722-8.653,2.622-13.393,2.622h-9.48v-9.367h3.385c1.054,0,2.032-0.523,3.009-1.646
		c0.903-1.049,1.355-2.175,1.355-3.223c0-1.124-0.452-2.398-1.43-3.672c-0.978-1.273-2.031-1.874-3.16-1.874h-3.16v-9.439h3.385
		c0.979,0,1.806-0.524,2.484-1.573c0.752-1.049,1.127-2.098,1.127-3.072c0-0.9-0.375-1.875-1.202-2.698
		C38.674,9.59,37.77,9.14,36.792,9.14h-3.16V0h11.135c3.987,0,7.749,0.823,11.286,2.548C60.417,4.72,62.6,7.567,62.6,11.089v0.748
		c0,1.423-0.451,2.923-1.355,4.497c-0.902,1.573-2.03,2.696-3.31,3.221c-0.301,0.15-1.805,0.75-4.59,1.724
		C52.669,21.803,52.217,22.028,52.142,22.028L52.142,22.028z M33.633,46.979L33.633,46.979H0.15v-7.867
		c1.43,0,2.709-0.449,3.688-1.349c0.978-0.899,1.505-2.099,1.505-3.447V13.336c0-1.423-0.527-2.547-1.58-3.446
		C2.785,8.992,1.505,8.541,0,8.541V0h33.633v9.14H28.14c-0.978,0-1.43,0.45-1.43,1.35v5.994c0,0.824,0.452,1.274,1.43,1.274h5.493
		v9.439H28.14c-0.978,0-1.43,0.451-1.43,1.276v7.866c0,0.823,0.452,1.272,1.43,1.272h5.493V46.979z"/>
	<path fill="#211D1C" d="M123.771,25.549v21.654H67.415v-8.092h0.527c1.28,0,2.408-0.449,3.311-1.349
		c0.904-0.899,1.354-1.947,1.354-3.298V12.961c0-1.348-0.527-2.472-1.655-3.445c-1.128-0.9-2.333-1.35-3.687-1.35V0h31.074v8.167
		c-1.43,0-2.708,0.45-3.688,1.35c-0.978,0.898-1.43,2.023-1.43,3.521v22.701c0,1.8,0.678,2.698,2.033,2.698h6.546
		c1.579,0,2.859-0.751,3.988-2.324c0.902-1.196,1.354-2.471,1.354-3.671v-6.893H123.771z"/>
	<path fill="#211D1C" d="M182.911,25.549v21.654h-56.432v-8.092h0.602c1.279,0,2.408-0.449,3.311-1.349
		c0.902-0.899,1.354-1.947,1.354-3.298V12.961c0-1.348-0.602-2.472-1.654-3.445c-1.13-0.9-2.333-1.35-3.688-1.35V0h31.072v8.167
		c-1.504,0-2.706,0.45-3.685,1.35c-0.903,0.898-1.431,2.023-1.431,3.521v22.701c0,1.8,0.678,2.698,2.033,2.698h6.546
		c1.506,0,2.857-0.751,3.988-2.324c0.9-1.196,1.354-2.471,1.354-3.671v-6.893H182.911z"/>
	<path fill="#53B5DA" d="M193.896,0.299c0.601,0.075,1.128,0.075,1.579,0.226c0.526,0.148,1.055,0.374,1.354,0.673
		c0.376,0.225,0.678,0.599,0.827,0.975c0.151,0.45,0.227,0.899,0.227,1.349c0,0.299,0,0.599-0.149,0.898
		c-0.077,0.3-0.227,0.6-0.454,0.825c-0.149,0.224-0.374,0.449-0.677,0.6c-0.302,0.224-0.676,0.374-1.051,0.524
		c0.9,0.148,1.578,0.449,2.104,0.974c0.451,0.45,0.678,1.049,0.678,1.873c0,0.524-0.149,0.974-0.301,1.422
		c-0.226,0.451-0.526,0.825-0.828,1.125c-0.376,0.3-0.904,0.524-1.431,0.75c-0.525,0.15-1.127,0.224-1.805,0.224h-0.074v-1.349
		c0.527,0,0.901,0,1.278-0.15c0.301-0.075,0.601-0.298,0.827-0.449c0.228-0.225,0.377-0.449,0.528-0.749
		c0.073-0.226,0.149-0.524,0.149-0.9c0-0.6-0.227-1.124-0.678-1.498c-0.449-0.375-1.127-0.6-2.105-0.6V5.845
		c0.301,0,0.527-0.075,0.752-0.151c0.376-0.075,0.676-0.225,0.904-0.374c0.223-0.225,0.375-0.45,0.526-0.75
		c0.073-0.225,0.15-0.524,0.15-0.823c0-0.75-0.228-1.274-0.677-1.574c-0.378-0.3-0.904-0.45-1.656-0.524V0.299z M189.53,12.737
		L189.53,12.737V0.299h3.988c0.151,0,0.301,0,0.377,0v1.349c-0.076,0-0.226,0-0.377,0h-2.333v4.196h2.256c0.154,0,0.304,0,0.454,0
		v1.198l0,0h-2.71v4.346h2.71l0,0v1.349H189.53z"/>
	<path fill="#53B5DA" d="M205.631,11.388c0.528,0,0.978-0.075,1.433-0.225c0.374-0.224,0.751-0.449,0.978-0.749
		c0.3-0.3,0.526-0.674,0.678-1.124c0.149-0.45,0.223-0.898,0.223-1.423V0.299h1.655v7.568c0,0.749-0.073,1.423-0.3,2.023
		c-0.225,0.6-0.601,1.124-0.978,1.573c-0.451,0.45-0.979,0.749-1.578,1.049c-0.678,0.224-1.355,0.374-2.11,0.374
		c-0.75,0-1.427-0.15-2.031-0.374c-0.674-0.301-1.202-0.6-1.578-1.049c-0.451-0.449-0.754-0.974-0.978-1.573
		c-0.228-0.6-0.377-1.274-0.377-2.023V0.299h1.655v7.568c0,0.525,0.075,0.974,0.227,1.423c0.148,0.449,0.377,0.824,0.677,1.124
		c0.301,0.3,0.601,0.525,1.052,0.749C204.653,11.313,205.104,11.388,205.631,11.388L205.631,11.388z"/>
	<path fill="#53B5DA" d="M219.927,2.247c-0.073,0.076-0.15,0.15-0.15,0.226c-0.074,0-0.149,0-0.224,0c-0.15,0-0.227,0-0.377-0.075
		c-0.149-0.15-0.301-0.224-0.526-0.374c-0.151-0.075-0.451-0.226-0.678-0.3c-0.301-0.149-0.678-0.149-1.052-0.149
		c-0.378,0-0.678,0-0.981,0.149c-0.3,0.075-0.526,0.226-0.749,0.375c-0.151,0.224-0.303,0.374-0.451,0.6
		c-0.077,0.299-0.153,0.524-0.153,0.824c0,0.299,0.076,0.599,0.302,0.824c0.151,0.225,0.376,0.45,0.678,0.599
		c0.301,0.151,0.603,0.301,0.978,0.449c0.301,0.076,0.678,0.226,1.052,0.376c0.378,0.075,0.755,0.224,1.132,0.374
		c0.375,0.15,0.677,0.374,0.977,0.6c0.225,0.299,0.451,0.6,0.678,0.899c0.15,0.374,0.225,0.825,0.225,1.35
		c0,0.524-0.074,1.048-0.3,1.498c-0.151,0.45-0.451,0.898-0.829,1.273c-0.3,0.375-0.75,0.6-1.277,0.825
		c-0.527,0.224-1.128,0.299-1.805,0.299c-0.755,0-1.507-0.15-2.183-0.449c-0.677-0.3-1.205-0.675-1.732-1.2l0.527-0.748
		c0-0.076,0.077-0.15,0.15-0.226c0.077,0,0.151,0,0.227,0c0.151,0,0.3,0,0.451,0.15c0.149,0.15,0.3,0.3,0.526,0.45
		c0.301,0.15,0.526,0.299,0.902,0.45c0.302,0.075,0.753,0.15,1.204,0.15c0.376,0,0.753,0,1.054-0.15
		c0.377-0.076,0.602-0.299,0.828-0.45c0.227-0.226,0.377-0.45,0.526-0.75c0.074-0.224,0.151-0.524,0.151-0.898
		c0-0.375-0.077-0.675-0.229-0.899c-0.223-0.3-0.449-0.449-0.676-0.6c-0.302-0.226-0.602-0.374-0.978-0.449
		c-0.377-0.15-0.751-0.225-1.129-0.375c-0.377-0.075-0.753-0.225-1.055-0.375c-0.376-0.148-0.676-0.374-0.978-0.6
		c-0.301-0.299-0.526-0.598-0.676-0.974c-0.151-0.375-0.225-0.824-0.225-1.348c0-0.45,0.073-0.898,0.225-1.274
		c0.149-0.45,0.449-0.824,0.753-1.124c0.3-0.299,0.678-0.525,1.202-0.749c0.453-0.15,1.054-0.3,1.657-0.3
		c0.674,0,1.278,0.15,1.878,0.376c0.604,0.224,1.056,0.524,1.507,0.898L219.927,2.247z"/>
	<rect x="223.087" y="0.299" fill="#53B5DA" width="1.655" height="12.438"/>
	<path fill="#53B5DA" d="M228.957,0.299c0.149,0,0.3,0,0.377,0.075c0.074,0,0.149,0.075,0.227,0.225l7.222,9.366
		c0-0.151,0-0.301,0-0.449c0-0.15,0-0.226,0-0.376V0.299h1.431v12.438h-0.828c-0.149,0-0.227,0-0.376-0.074
		c-0.077,0-0.151-0.076-0.227-0.226l-7.222-9.366c0,0.15,0,0.299,0,0.45c0,0.15,0,0.225,0,0.374v8.841h-1.433V0.299H228.957z"/>
	<polygon fill="#53B5DA" points="248.972,0.299 248.972,1.648 242.951,1.648 242.951,5.845 247.843,5.845 247.843,7.117 
		242.951,7.117 242.951,11.388 248.972,11.388 248.972,12.737 241.296,12.737 241.296,0.299 	"/>
	<path fill="#53B5DA" d="M257.851,2.247c-0.077,0.076-0.151,0.15-0.227,0.226c0,0-0.074,0-0.228,0c-0.072,0-0.224,0-0.301-0.075
		c-0.149-0.15-0.3-0.224-0.526-0.374c-0.151-0.075-0.451-0.226-0.752-0.3c-0.226-0.149-0.604-0.149-0.978-0.149
		c-0.377,0-0.753,0-0.978,0.149c-0.304,0.075-0.526,0.226-0.753,0.375c-0.225,0.224-0.378,0.374-0.451,0.6
		c-0.077,0.299-0.151,0.524-0.151,0.824c0,0.299,0.074,0.599,0.225,0.824c0.227,0.225,0.453,0.45,0.754,0.599
		c0.228,0.151,0.602,0.301,0.902,0.449c0.377,0.076,0.753,0.226,1.13,0.376c0.374,0.075,0.751,0.224,1.129,0.374
		c0.3,0.15,0.678,0.374,0.903,0.6c0.301,0.299,0.523,0.6,0.675,0.899c0.152,0.374,0.304,0.825,0.304,1.35
		c0,0.524-0.151,1.048-0.304,1.498c-0.225,0.45-0.451,0.898-0.828,1.273c-0.374,0.375-0.75,0.6-1.278,0.825
		c-0.526,0.224-1.127,0.299-1.805,0.299c-0.828,0-1.582-0.15-2.182-0.449c-0.678-0.3-1.278-0.675-1.732-1.2l0.454-0.748
		c0.074-0.076,0.149-0.15,0.223-0.226c0.077,0,0.151,0,0.227,0c0.077,0,0.227,0,0.378,0.15c0.15,0.15,0.377,0.3,0.6,0.45
		c0.227,0.15,0.528,0.299,0.904,0.45c0.301,0.075,0.678,0.15,1.203,0.15c0.377,0,0.753,0,1.053-0.15
		c0.302-0.076,0.604-0.299,0.828-0.45c0.149-0.226,0.378-0.45,0.451-0.75c0.153-0.224,0.227-0.524,0.227-0.898
		c0-0.375-0.073-0.675-0.3-0.899c-0.151-0.3-0.378-0.449-0.678-0.6c-0.3-0.226-0.601-0.374-0.904-0.449
		c-0.374-0.15-0.751-0.225-1.128-0.375c-0.378-0.075-0.752-0.225-1.128-0.375c-0.302-0.148-0.677-0.374-0.903-0.6
		c-0.302-0.299-0.525-0.598-0.678-0.974c-0.225-0.375-0.3-0.824-0.3-1.348c0-0.45,0.075-0.898,0.3-1.274
		c0.152-0.45,0.376-0.824,0.753-1.124c0.3-0.299,0.678-0.525,1.204-0.749c0.451-0.15,0.978-0.3,1.655-0.3s1.278,0.15,1.88,0.376
		c0.604,0.224,1.054,0.524,1.505,0.898L257.851,2.247z"/>
	<path fill="#53B5DA" d="M267.029,2.247c-0.075,0.076-0.075,0.15-0.149,0.226c-0.077,0-0.154,0-0.228,0
		c-0.075,0-0.227,0-0.376-0.075c-0.074-0.15-0.227-0.224-0.451-0.374c-0.227-0.075-0.451-0.226-0.753-0.3
		c-0.225-0.149-0.603-0.149-0.978-0.149c-0.378,0-0.752,0-1.052,0.149c-0.304,0.075-0.528,0.226-0.678,0.375
		c-0.227,0.224-0.377,0.374-0.454,0.6c-0.149,0.299-0.149,0.524-0.149,0.824c0,0.299,0.075,0.599,0.227,0.824
		c0.227,0.225,0.451,0.45,0.678,0.599c0.3,0.151,0.6,0.301,0.978,0.449c0.377,0.076,0.751,0.226,1.127,0.376
		c0.377,0.075,0.755,0.224,1.055,0.374c0.377,0.15,0.678,0.374,0.978,0.6c0.301,0.299,0.527,0.6,0.678,0.899
		c0.151,0.374,0.301,0.825,0.301,1.35c0,0.524-0.149,1.048-0.301,1.498c-0.227,0.45-0.451,0.898-0.828,1.273
		c-0.376,0.375-0.827,0.6-1.354,0.825c-0.451,0.224-1.055,0.299-1.732,0.299c-0.827,0-1.578-0.15-2.256-0.449
		c-0.601-0.3-1.204-0.675-1.655-1.2l0.451-0.748c0.077-0.076,0.149-0.15,0.227-0.226c0,0,0.073,0,0.225,0
		c0.075,0,0.227,0,0.376,0.15c0.15,0.15,0.377,0.3,0.604,0.45c0.225,0.15,0.524,0.299,0.828,0.45c0.374,0.075,0.751,0.15,1.278,0.15
		c0.377,0,0.751,0,1.053-0.15c0.302-0.076,0.525-0.299,0.752-0.45c0.227-0.226,0.451-0.45,0.528-0.75
		c0.149-0.224,0.149-0.524,0.149-0.898c0-0.375-0.076-0.675-0.227-0.899c-0.151-0.3-0.374-0.449-0.678-0.6
		c-0.301-0.226-0.601-0.374-0.978-0.449c-0.301-0.15-0.678-0.225-1.052-0.375c-0.378-0.075-0.753-0.225-1.131-0.375
		c-0.374-0.148-0.677-0.374-0.978-0.6c-0.225-0.299-0.451-0.598-0.678-0.974c-0.15-0.375-0.223-0.824-0.223-1.348
		c0-0.45,0.072-0.898,0.223-1.274c0.227-0.45,0.453-0.824,0.755-1.124c0.376-0.299,0.75-0.525,1.204-0.749
		c0.523-0.15,1.052-0.3,1.655-0.3c0.75,0,1.354,0.15,1.956,0.376c0.526,0.224,1.053,0.524,1.504,0.898L267.029,2.247z"/>
	<polygon fill="#53B5DA" points="191.186,24.875 196.603,24.875 196.603,26.297 189.53,26.297 189.53,13.861 191.186,13.861 	"/>
	<polygon fill="#53B5DA" points="206.159,13.861 206.159,15.21 200.216,15.21 200.216,19.331 205.03,19.331 205.03,20.679 
		200.216,20.679 200.216,24.95 206.159,24.95 206.159,26.297 198.484,26.297 198.484,13.861 	"/>
	<path fill="#53B5DA" d="M218.875,26.297h-1.281c-0.149,0-0.3-0.073-0.374-0.148c-0.075-0.074-0.149-0.148-0.227-0.299l-1.204-2.998
		h-2.783v-1.199h2.332l-1.955-5.019c-0.149-0.299-0.227-0.75-0.377-1.199v-1.573h0.903L218.875,26.297z M213.006,22.852
		L213.006,22.852h-2.783l-1.204,2.998c0,0.15-0.077,0.225-0.15,0.299c-0.149,0.075-0.227,0.148-0.376,0.148h-1.355l5.042-12.436
		h0.827v1.573l0,0c-0.076,0.226-0.149,0.45-0.149,0.674c-0.077,0.226-0.151,0.375-0.227,0.525l-1.956,5.019h2.332V22.852z"/>
	<path fill="#53B5DA" d="M231.29,20.079c0,0.9-0.151,1.799-0.451,2.549c-0.301,0.748-0.678,1.423-1.278,1.946
		c-0.528,0.523-1.204,0.975-1.959,1.275c-0.525,0.225-1.127,0.374-1.729,0.374v-1.349c0.374-0.074,0.752-0.151,1.052-0.301
		c0.528-0.225,1.055-0.523,1.433-0.897c0.375-0.451,0.676-0.976,0.9-1.574c0.151-0.6,0.304-1.275,0.304-2.024
		c0-0.749-0.152-1.423-0.304-2.023c-0.225-0.599-0.525-1.124-0.9-1.573c-0.378-0.375-0.904-0.674-1.433-0.899
		c-0.3-0.15-0.678-0.299-1.052-0.299v-1.424c0.603,0.075,1.204,0.225,1.729,0.449c0.755,0.3,1.431,0.75,1.959,1.274
		c0.601,0.524,0.978,1.2,1.278,1.948C231.139,18.282,231.29,19.105,231.29,20.079L231.29,20.079z M225.872,26.224L225.872,26.224
		c-0.226,0.073-0.526,0.073-0.753,0.073h-4.665V13.861h4.665c0.227,0,0.527,0,0.753,0v1.424c-0.226-0.075-0.526-0.075-0.753-0.075
		h-2.933v9.74h2.933c0.227,0,0.527-0.075,0.753-0.075V26.224z"/>
	<polygon fill="#53B5DA" points="241.296,13.861 241.296,15.21 235.276,15.21 235.276,19.331 240.168,19.331 240.168,20.679 
		235.276,20.679 235.276,24.95 241.296,24.95 241.296,26.297 233.547,26.297 233.547,13.861 	"/>
	<path fill="#53B5DA" d="M247.917,13.861c0.604,0.075,1.13,0.075,1.581,0.225c0.527,0.15,1.054,0.375,1.355,0.675
		c0.449,0.299,0.676,0.673,0.9,1.123c0.151,0.45,0.227,0.9,0.227,1.424c0,0.45-0.075,0.824-0.227,1.198
		c-0.15,0.376-0.3,0.75-0.601,1.049c-0.226,0.3-0.528,0.524-0.978,0.75c-0.377,0.226-0.755,0.374-1.281,0.524
		c0.227,0.15,0.378,0.3,0.604,0.525l3.611,4.943h-1.506c-0.301,0-0.527-0.148-0.676-0.374l-3.011-4.045v-2.023
		c0.304-0.075,0.526-0.075,0.753-0.15c0.377-0.15,0.678-0.3,0.902-0.524c0.304-0.224,0.453-0.45,0.604-0.749
		c0.074-0.3,0.149-0.674,0.149-0.975c0-0.749-0.227-1.349-0.678-1.723c-0.449-0.3-0.978-0.45-1.73-0.524V13.861z M245.584,21.128
		L245.584,21.128v5.168h-1.729V13.861h3.537c0.225,0,0.374,0,0.525,0v1.349c-0.151,0-0.301,0-0.525,0h-1.808v4.645h1.732
		c0.227,0,0.449,0,0.601,0v2.023l-0.225-0.374c-0.076-0.15-0.227-0.226-0.301-0.301c-0.152-0.074-0.302-0.074-0.526-0.074H245.584z"
		/>
	<path fill="#53B5DA" d="M261.311,15.81c0,0.074-0.075,0.149-0.149,0.224c-0.077,0-0.15,0-0.228,0c-0.074,0-0.224,0-0.301-0.15
		c-0.149-0.074-0.3-0.149-0.526-0.3c-0.227-0.15-0.451-0.226-0.752-0.299c-0.303-0.15-0.604-0.15-0.978-0.15
		c-0.377,0-0.753,0-1.053,0.15c-0.229,0.074-0.528,0.224-0.678,0.375c-0.229,0.224-0.378,0.374-0.451,0.599
		c-0.151,0.3-0.151,0.525-0.151,0.824c0,0.301,0.074,0.6,0.225,0.825c0.227,0.224,0.451,0.45,0.678,0.598
		c0.301,0.15,0.604,0.301,0.979,0.376c0.375,0.149,0.753,0.299,1.127,0.374c0.377,0.15,0.678,0.299,1.055,0.45
		c0.377,0.15,0.678,0.374,0.978,0.6c0.301,0.226,0.526,0.524,0.678,0.898c0.149,0.376,0.227,0.826,0.227,1.35
		c0,0.525-0.077,0.974-0.227,1.499c-0.225,0.45-0.451,0.899-0.828,1.275c-0.376,0.297-0.827,0.597-1.278,0.822
		c-0.604,0.148-1.127,0.3-1.805,0.3c-0.828,0-1.582-0.151-2.182-0.448c-0.678-0.3-1.281-0.674-1.732-1.199l0.451-0.825
		c0.075,0,0.152-0.074,0.226-0.15c0,0,0.151-0.074,0.227-0.074c0.074,0,0.225,0.074,0.374,0.225
		c0.154,0.151,0.378,0.301,0.604,0.451c0.227,0.147,0.527,0.297,0.829,0.448c0.376,0.075,0.75,0.149,1.204,0.149
		c0.449,0,0.827-0.074,1.127-0.149c0.302-0.074,0.528-0.301,0.752-0.448c0.226-0.227,0.454-0.451,0.526-0.75
		c0.15-0.226,0.15-0.6,0.15-0.901c0-0.374-0.073-0.673-0.223-0.974c-0.151-0.224-0.378-0.375-0.678-0.6
		c-0.3-0.148-0.604-0.298-0.978-0.374c-0.378-0.15-0.678-0.225-1.055-0.374c-0.378-0.075-0.754-0.226-1.129-0.375
		c-0.376-0.148-0.676-0.374-0.904-0.598c-0.3-0.3-0.526-0.6-0.676-0.976c-0.225-0.374-0.302-0.824-0.302-1.348
		c0-0.45,0.077-0.899,0.302-1.274c0.149-0.45,0.376-0.824,0.676-1.123c0.377-0.3,0.755-0.6,1.206-0.75
		c0.526-0.226,1.053-0.299,1.653-0.299c0.752,0,1.355,0.074,1.956,0.299c0.528,0.226,1.055,0.6,1.506,0.974L261.311,15.81z"/>
	<polygon fill="#53B5DA" points="274.328,26.297 272.596,26.297 272.596,20.604 265.899,20.604 265.899,26.297 264.17,26.297 
		264.17,13.861 265.899,13.861 265.899,19.405 272.596,19.405 272.596,13.861 274.328,13.861 	"/>
	<rect x="277.638" y="13.861" fill="#53B5DA" width="1.729" height="12.436"/>
	<path fill="#53B5DA" d="M287.041,13.861c0.604,0.075,1.131,0.15,1.582,0.3c0.601,0.149,1.055,0.45,1.429,0.749
		c0.453,0.3,0.678,0.75,0.904,1.199c0.148,0.45,0.3,1.049,0.3,1.573c0,0.6-0.151,1.125-0.377,1.649
		c-0.149,0.45-0.45,0.898-0.827,1.2c-0.451,0.374-0.902,0.598-1.505,0.824c-0.451,0.15-0.978,0.225-1.506,0.298v-1.348
		c0.304-0.076,0.528-0.076,0.829-0.226c0.375-0.074,0.677-0.299,0.903-0.524c0.227-0.224,0.45-0.45,0.601-0.824
		c0.077-0.299,0.151-0.6,0.151-1.049c0-0.75-0.226-1.348-0.752-1.798c-0.377-0.375-0.978-0.599-1.732-0.674V13.861z M284.559,21.652
		L284.559,21.652v4.645h-1.655V13.861h3.688c0.149,0,0.3,0,0.449,0v1.349c-0.149,0-0.3,0-0.449,0h-2.033v5.095h2.033
		c0.149,0,0.3,0,0.449,0v1.348c-0.149,0-0.3,0-0.449,0H284.559z"/>
	<polygon fill="#53B5DA" points="191.186,38.288 196.603,38.288 196.603,39.71 189.53,39.71 189.53,27.273 191.186,27.273 	"/>
	<polygon fill="#53B5DA" points="206.159,27.273 206.159,28.622 200.216,28.622 200.216,32.742 205.03,32.742 205.03,34.091 
		200.216,34.091 200.216,38.361 206.159,38.361 206.159,39.71 198.484,39.71 198.484,27.273 	"/>
	<path fill="#53B5DA" d="M218.875,39.71h-1.281c-0.149,0-0.3-0.073-0.374-0.15c-0.075-0.074-0.149-0.149-0.227-0.301l-1.204-2.92
		h-2.783v-1.275h2.332l-1.955-5.018c-0.149-0.302-0.227-0.676-0.377-1.199v-1.573h0.903L218.875,39.71z M213.006,36.339
		L213.006,36.339h-2.783l-1.204,2.92c0,0.151-0.077,0.227-0.15,0.301c-0.149,0.077-0.227,0.15-0.376,0.15h-1.355l5.042-12.437h0.827
		v1.573l0,0c-0.076,0.224-0.149,0.448-0.149,0.675c-0.077,0.223-0.151,0.374-0.227,0.524l-1.956,5.018h2.332V36.339z"/>
	<path fill="#53B5DA" d="M225.646,38.511c0.377,0,0.677-0.074,0.903-0.074c0.301,0,0.601-0.075,0.829-0.148
		c0.223-0.077,0.526-0.151,0.676-0.226c0.225-0.077,0.451-0.226,0.677-0.3V34.99h-1.957c-0.073,0-0.15,0-0.225-0.074
		c-0.075-0.077-0.075-0.151-0.075-0.227v-0.973h3.837v4.794c-0.377,0.225-0.678,0.374-0.978,0.601
		c-0.377,0.147-0.755,0.299-1.129,0.374c-0.377,0.151-0.753,0.225-1.204,0.299c-0.451,0-0.978,0.077-1.429,0.077
		c-0.979,0-1.808-0.151-2.56-0.451c-0.753-0.374-1.354-0.748-1.882-1.348c-0.601-0.524-0.978-1.199-1.354-1.95
		c-0.301-0.822-0.45-1.647-0.45-2.622c0-0.973,0.149-1.798,0.45-2.622c0.302-0.75,0.754-1.424,1.281-1.947
		c0.601-0.599,1.277-1.05,2.029-1.348c0.828-0.3,1.655-0.45,2.637-0.45c0.522,0,0.978,0.073,1.427,0.15
		c0.377,0.074,0.755,0.149,1.129,0.3c0.377,0.148,0.753,0.298,1.055,0.448c0.3,0.224,0.601,0.451,0.827,0.675l-0.451,0.748
		c-0.149,0.227-0.227,0.3-0.376,0.3c-0.077,0-0.228-0.073-0.302-0.149c-0.149-0.073-0.376-0.15-0.526-0.3
		c-0.149-0.074-0.378-0.225-0.678-0.299c-0.227-0.149-0.526-0.227-0.904-0.3c-0.374-0.074-0.751-0.074-1.2-0.074
		c-0.755,0-1.355,0.074-1.959,0.299c-0.525,0.227-1.052,0.601-1.43,0.975c-0.375,0.448-0.753,0.973-0.903,1.573
		c-0.224,0.599-0.374,1.273-0.374,2.021c0,0.825,0.15,1.5,0.374,2.099c0.227,0.601,0.528,1.125,0.903,1.573
		c0.451,0.449,0.904,0.75,1.507,0.975C224.368,38.361,224.969,38.511,225.646,38.511L225.646,38.511z"/>
	<path fill="#53B5DA" d="M237.759,38.361c0.528,0,0.979-0.073,1.354-0.299c0.378-0.15,0.755-0.377,1.055-0.674
		c0.301-0.301,0.451-0.675,0.678-1.126c0.074-0.447,0.149-0.898,0.149-1.424v-7.565h1.732v7.565c0,0.676-0.152,1.351-0.377,2.024
		c-0.227,0.599-0.527,1.122-0.979,1.573c-0.452,0.448-0.978,0.749-1.581,1.049c-0.601,0.225-1.278,0.376-2.032,0.376
		c-0.827,0-1.505-0.151-2.105-0.376c-0.601-0.3-1.129-0.601-1.581-1.049c-0.374-0.451-0.752-0.975-0.978-1.573
		c-0.224-0.674-0.301-1.349-0.301-2.024v-7.565h1.655v7.565c0,0.525,0.075,0.977,0.227,1.424c0.151,0.451,0.377,0.825,0.601,1.126
		c0.3,0.297,0.678,0.523,1.055,0.674C236.782,38.288,237.235,38.361,237.759,38.361L237.759,38.361z"/>
	<polygon fill="#53B5DA" points="253.336,27.273 253.336,28.622 247.316,28.622 247.316,32.742 252.207,32.742 252.207,34.091 
		247.316,34.091 247.316,38.361 253.336,38.361 253.336,39.71 245.584,39.71 245.584,27.273 	"/>
</g>
</svg>
